<?xml version="1.0" encoding="UTF-8" standalone="no" ?>
<!DOCTYPE svg PUBLIC "-//W3C//DTD SVG 1.1//EN" "http://www.w3.org/Graphics/SVG/1.1/DTD/svg11.dtd">
<svg xmlns="http://www.w3.org/2000/svg" xmlns:xlink="http://www.w3.org/1999/xlink" version="1.1" width="500" height="500" viewBox="0 0 500 500" xml:space="preserve">
<desc>Created with Fabric.js 4.6.0</desc>
<defs>
</defs>
<g transform="matrix(2.42 0 0 2.42 289.87 229.43)" id="pkI2MIJw4D-VB9IAghYb_"  >
<filter id="SVGID_214" y="-21%" height="142%" x="-23%" width="146%" >
	<feGaussianBlur in="SourceAlpha" stdDeviation="0.5"></feGaussianBlur>
	<feOffset dx="2" dy="1" result="oBlur" ></feOffset>
	<feFlood flood-color="rgb(0,0,0)" flood-opacity="0.28"/>
	<feComposite in2="oBlur" operator="in" />
	<feMerge>
		<feMergeNode></feMergeNode>
		<feMergeNode in="SourceGraphic"></feMergeNode>
	</feMerge>
</filter>
<path style="stroke: none; stroke-width: 1; stroke-dasharray: none; stroke-linecap: butt; stroke-dashoffset: 0; stroke-linejoin: miter; stroke-miterlimit: 4; fill: rgb(0,211,255); fill-rule: nonzero; opacity: 1;filter: url(#SVGID_214);" vector-effect="non-scaling-stroke"  transform=" translate(-318.98, -292.86)" d="M 333.875566201 310.759608372 L 333.875566201 310.759608372 Q 327.275566201 305.759608372 318.875566201 301.559608372 L 318.875566201 301.559608372 L 309.875566201 296.959608372 Q 309.275566201 296.759608372 308.675566201 296.559608372 L 308.675566201 296.559608372 Q 292.275566201 288.559608372 283.275566201 279.659608372 Q 274.275566201 270.759608372 274.275566201 254.859608372 Q 274.275566201 238.959608372 286.375566201 229.159608372 Q 298.475566201 219.359608372 315.475566201 219.359608372 Q 332.475566201 219.359608372 358.075566201 225.759608372 L 358.075566201 225.759608372 L 355.275566201 255.159608372 L 343.475566201 253.959608372 L 343.475566201 245.959608372 Q 343.475566201 243.959608372 340.675566201 234.759608372 L 340.675566201 234.759608372 Q 330.075566201 230.359608372 318.675566201 230.359608372 Q 307.275566201 230.359608372 300.775566201 236.159608372 Q 294.275566201 241.959608372 294.275566201 252.559608372 L 294.275566201 252.559608372 Q 294.275566201 262.959608372 304.275566201 270.559608372 L 304.275566201 270.559608372 Q 311.275566201 275.559608372 319.175566201 279.459608372 Q 327.075566201 283.359608372 327.475566201 283.559608372 L 327.475566201 283.559608372 Q 336.875566201 288.359608372 342.275566201 291.759608372 Q 347.675566201 295.159608372 353.475566201 300.159608372 L 353.475566201 300.159608372 Q 364.875566201 310.359608372 364.875566201 328.259608372 Q 364.875566201 346.159608372 351.475566201 356.259608372 Q 338.075566201 366.359608372 319.375566201 366.359608372 Q 300.675566201 366.359608372 285.075566201 361.159608372 L 285.075566201 361.159608372 Q 278.475566201 358.959608372 273.075566201 355.759608372 L 273.075566201 355.759608372 L 276.075566201 324.959608372 L 289.275566201 326.159608372 L 289.275566201 335.759608372 Q 289.275566201 338.759608372 291.475566201 348.959608372 L 291.475566201 348.959608372 Q 304.075566201 354.359608372 316.875566201 354.359608372 Q 329.675566201 354.359608372 336.775566201 347.859608372 Q 343.875566201 341.359608372 343.875566201 329.859608372 Q 343.875566201 318.359608372 333.875566201 310.759608372 Z" stroke-linecap="round" />
</g>
<g transform="matrix(2.42 0 0 2.42 290.87 218.69)" id="R_Xphh_w_7nCNrgjyLpgi"  >
<path style="stroke: none; stroke-width: 1; stroke-dasharray: none; stroke-linecap: butt; stroke-dashoffset: 0; stroke-linejoin: miter; stroke-miterlimit: 4; fill: rgb(0,24,166); fill-rule: nonzero; opacity: 1;" vector-effect="non-scaling-stroke"  transform=" translate(-318.98, -271.48)" d="M 333.875566201 289.379717195 L 333.875566201 289.379717195 Q 327.275566201 284.379717195 318.875566201 280.179717195 L 318.875566201 280.179717195 L 309.875566201 275.579717195 Q 309.275566201 275.379717195 308.675566201 275.179717195 L 308.675566201 275.179717195 Q 292.275566201 267.179717195 283.275566201 258.279717195 Q 274.275566201 249.379717195 274.275566201 233.479717195 Q 274.275566201 217.579717195 286.375566201 207.779717195 Q 298.475566201 197.979717195 315.475566201 197.979717195 Q 332.475566201 197.979717195 358.075566201 204.379717195 L 358.075566201 204.379717195 L 355.275566201 233.779717195 L 343.475566201 232.579717195 L 343.475566201 224.579717195 Q 343.475566201 222.579717195 340.675566201 213.379717195 L 340.675566201 213.379717195 Q 330.075566201 208.979717195 318.675566201 208.979717195 Q 307.275566201 208.979717195 300.775566201 214.779717195 Q 294.275566201 220.579717195 294.275566201 231.179717195 L 294.275566201 231.179717195 Q 294.275566201 241.579717195 304.275566201 249.179717195 L 304.275566201 249.179717195 Q 311.275566201 254.179717195 319.175566201 258.079717195 Q 327.075566201 261.979717195 327.475566201 262.179717195 L 327.475566201 262.179717195 Q 336.875566201 266.979717195 342.275566201 270.379717195 Q 347.675566201 273.779717195 353.475566201 278.779717195 L 353.475566201 278.779717195 Q 364.875566201 288.979717195 364.875566201 306.879717195 Q 364.875566201 324.779717195 351.475566201 334.879717195 Q 338.075566201 344.979717195 319.375566201 344.979717195 Q 300.675566201 344.979717195 285.075566201 339.779717195 L 285.075566201 339.779717195 Q 278.475566201 337.579717195 273.075566201 334.379717195 L 273.075566201 334.379717195 L 276.075566201 303.579717195 L 289.275566201 304.779717195 L 289.275566201 314.379717195 Q 289.275566201 317.379717195 291.475566201 327.579717195 L 291.475566201 327.579717195 Q 304.075566201 332.979717195 316.875566201 332.979717195 Q 329.675566201 332.979717195 336.775566201 326.479717195 Q 343.875566201 319.979717195 343.875566201 308.479717195 Q 343.875566201 296.979717195 333.875566201 289.379717195 Z" stroke-linecap="round" />
</g>
<g transform="matrix(2.42 0 0 2.42 192.51 278.36)" id="6zAD5yrRmg5toNOxV45fr"  >
<filter id="SVGID_218" y="-21%" height="142%" x="-23%" width="146%" >
	<feGaussianBlur in="SourceAlpha" stdDeviation="0.5"></feGaussianBlur>
	<feOffset dx="2" dy="1" result="oBlur" ></feOffset>
	<feFlood flood-color="rgb(0,0,0)" flood-opacity="0.43"/>
	<feComposite in2="oBlur" operator="in" />
	<feMerge>
		<feMergeNode></feMergeNode>
		<feMergeNode in="SourceGraphic"></feMergeNode>
	</feMerge>
</filter>
<path style="stroke: none; stroke-width: 1; stroke-dasharray: none; stroke-linecap: butt; stroke-dashoffset: 0; stroke-linejoin: miter; stroke-miterlimit: 4; fill: rgb(255,219,27); fill-rule: nonzero; opacity: 1;filter: url(#SVGID_218);" vector-effect="non-scaling-stroke"  transform=" translate(-221.61, -341.28)" d="M 236.509913619 359.182430979 L 236.509913619 359.182430979 Q 229.909913619 354.182430979 221.509913619 349.982430979 L 221.509913619 349.982430979 L 212.509913619 345.382430979 Q 211.909913619 345.182430979 211.309913619 344.982430979 L 211.309913619 344.982430979 Q 194.909913619 336.982430979 185.909913619 328.082430979 Q 176.909913619 319.182430979 176.909913619 303.282430979 Q 176.909913619 287.382430979 189.009913619 277.582430979 Q 201.109913619 267.782430979 218.109913619 267.782430979 Q 235.109913619 267.782430979 260.709913619 274.182430979 L 260.709913619 274.182430979 L 257.909913619 303.582430979 L 246.109913619 302.382430979 L 246.109913619 294.382430979 Q 246.109913619 292.382430979 243.309913619 283.182430979 L 243.309913619 283.182430979 Q 232.709913619 278.782430979 221.309913619 278.782430979 Q 209.909913619 278.782430979 203.409913619 284.582430979 Q 196.909913619 290.382430979 196.909913619 300.982430979 L 196.909913619 300.982430979 Q 196.909913619 311.382430979 206.909913619 318.982430979 L 206.909913619 318.982430979 Q 213.909913619 323.982430979 221.809913619 327.882430979 Q 229.709913619 331.782430979 230.109913619 331.982430979 L 230.109913619 331.982430979 Q 239.509913619 336.782430979 244.909913619 340.182430979 Q 250.309913619 343.582430979 256.109913619 348.582430979 L 256.109913619 348.582430979 Q 267.509913619 358.782430979 267.509913619 376.682430979 Q 267.509913619 394.582430979 254.109913619 404.682430979 Q 240.709913619 414.782430979 222.009913619 414.782430979 Q 203.309913619 414.782430979 187.709913619 409.582430979 L 187.709913619 409.582430979 Q 181.109913619 407.382430979 175.709913619 404.182430979 L 175.709913619 404.182430979 L 178.709913619 373.382430979 L 191.909913619 374.582430979 L 191.909913619 384.182430979 Q 191.909913619 387.182430979 194.109913619 397.382430979 L 194.109913619 397.382430979 Q 206.709913619 402.782430979 219.509913619 402.782430979 Q 232.309913619 402.782430979 239.409913619 396.282430979 Q 246.509913619 389.782430979 246.509913619 378.282430979 Q 246.509913619 366.782430979 236.509913619 359.182430979 Z" stroke-linecap="round" />
</g>
<g transform="matrix(2.42 0 0 2.42 194.51 261.88)" id="d7glxHt-JjxJDbQg0zgyy"  >
<path style="stroke: none; stroke-width: 1; stroke-dasharray: none; stroke-linecap: butt; stroke-dashoffset: 0; stroke-linejoin: miter; stroke-miterlimit: 4; fill: rgb(212,0,0); fill-rule: nonzero; opacity: 1;" vector-effect="non-scaling-stroke"  transform=" translate(-221.61, -319.23)" d="M 236.509913619 337.130570612 L 236.509913619 337.130570612 Q 229.909913619 332.130570612 221.509913619 327.930570612 L 221.509913619 327.930570612 L 212.509913619 323.330570612 Q 211.909913619 323.130570612 211.309913619 322.930570612 L 211.309913619 322.930570612 Q 194.909913619 314.930570612 185.909913619 306.030570612 Q 176.909913619 297.130570612 176.909913619 281.230570612 Q 176.909913619 265.330570612 189.009913619 255.530570612 Q 201.109913619 245.730570612 218.109913619 245.730570612 Q 235.109913619 245.730570612 260.709913619 252.130570612 L 260.709913619 252.130570612 L 257.909913619 281.530570612 L 246.109913619 280.330570612 L 246.109913619 272.330570612 Q 246.109913619 270.330570612 243.309913619 261.130570612 L 243.309913619 261.130570612 Q 232.709913619 256.730570612 221.309913619 256.730570612 Q 209.909913619 256.730570612 203.409913619 262.530570612 Q 196.909913619 268.330570612 196.909913619 278.930570612 L 196.909913619 278.930570612 Q 196.909913619 289.330570612 206.909913619 296.930570612 L 206.909913619 296.930570612 Q 213.909913619 301.930570612 221.809913619 305.830570612 Q 229.709913619 309.730570612 230.109913619 309.930570612 L 230.109913619 309.930570612 Q 239.509913619 314.730570612 244.909913619 318.130570612 Q 250.309913619 321.530570612 256.109913619 326.530570612 L 256.109913619 326.530570612 Q 267.509913619 336.730570612 267.509913619 354.630570612 Q 267.509913619 372.530570612 254.109913619 382.630570612 Q 240.709913619 392.730570612 222.009913619 392.730570612 Q 203.309913619 392.730570612 187.709913619 387.530570612 L 187.709913619 387.530570612 Q 181.109913619 385.330570612 175.709913619 382.130570612 L 175.709913619 382.130570612 L 178.709913619 351.330570612 L 191.909913619 352.530570612 L 191.909913619 362.130570612 Q 191.909913619 365.130570612 194.109913619 375.330570612 L 194.109913619 375.330570612 Q 206.709913619 380.730570612 219.509913619 380.730570612 Q 232.309913619 380.730570612 239.409913619 374.230570612 Q 246.509913619 367.730570612 246.509913619 356.230570612 Q 246.509913619 344.730570612 236.509913619 337.130570612 Z" stroke-linecap="round" />
</g>
</svg>